<?xml version="1.0" standalone="no"?>
<!DOCTYPE svg PUBLIC "-//W3C//DTD SVG 1.1//EN" "http://www.w3.org/Graphics/SVG/1.1/DTD/svg11.dtd">
<svg width="800" height="600" version="1.1" xmlns="http://www.w3.org/2000/svg">
<rect width="800" height="600" x="0" y="0" style="fill:rgb(238,238,238);stroke:none"/>
<rect width="800" height="600" x="0" y="0" style="fill:rgb(255,255,255);stroke:none"/>
<text x="2" y="566" fill="rgb(0,0,0)" font-family="Arial" font-size="12">0</text>
<text x="2" y="306" fill="rgb(0,0,0)" font-family="Arial" font-size="12">1</text>
<text x="2" y="46" fill="rgb(0,0,0)" font-family="Arial" font-size="12">2</text>
<text x="294" y="30" fill="rgb(0,0,0)" font-family="Arial" font-size="12">GC distribution over all sequences</text>
<line x1="13" y1="560" x2="790" y2="560" stroke="rgb(0,0,0)" stroke-width="1"/>
<line x1="13" y1="560" x2="13" y2="40" stroke="rgb(0,0,0)" stroke-width="1"/>
<text x="334" y="595" fill="rgb(0,0,0)" font-family="Arial" font-size="12">Mean GC content (%)</text>
<text x="12" y="575" fill="rgb(0,0,0)" font-family="Arial" font-size="12">0</text>
<rect width="7" height="520" x="20" y="40" style="fill:rgb(230,230,230);stroke:none"/>
<text x="26" y="575" fill="rgb(0,0,0)" font-family="Arial" font-size="12">2</text>
<rect width="7" height="520" x="34" y="40" style="fill:rgb(230,230,230);stroke:none"/>
<text x="40" y="575" fill="rgb(0,0,0)" font-family="Arial" font-size="12">4</text>
<rect width="7" height="520" x="48" y="40" style="fill:rgb(230,230,230);stroke:none"/>
<text x="54" y="575" fill="rgb(0,0,0)" font-family="Arial" font-size="12">6</text>
<rect width="7" height="520" x="62" y="40" style="fill:rgb(230,230,230);stroke:none"/>
<text x="68" y="575" fill="rgb(0,0,0)" font-family="Arial" font-size="12">8</text>
<rect width="7" height="520" x="76" y="40" style="fill:rgb(230,230,230);stroke:none"/>
<rect width="7" height="520" x="90" y="40" style="fill:rgb(230,230,230);stroke:none"/>
<text x="85" y="575" fill="rgb(0,0,0)" font-family="Arial" font-size="12">11</text>
<rect width="7" height="520" x="104" y="40" style="fill:rgb(230,230,230);stroke:none"/>
<rect width="7" height="520" x="118" y="40" style="fill:rgb(230,230,230);stroke:none"/>
<text x="113" y="575" fill="rgb(0,0,0)" font-family="Arial" font-size="12">15</text>
<rect width="7" height="520" x="132" y="40" style="fill:rgb(230,230,230);stroke:none"/>
<rect width="7" height="520" x="146" y="40" style="fill:rgb(230,230,230);stroke:none"/>
<text x="141" y="575" fill="rgb(0,0,0)" font-family="Arial" font-size="12">19</text>
<rect width="7" height="520" x="160" y="40" style="fill:rgb(230,230,230);stroke:none"/>
<rect width="7" height="520" x="174" y="40" style="fill:rgb(230,230,230);stroke:none"/>
<text x="169" y="575" fill="rgb(0,0,0)" font-family="Arial" font-size="12">23</text>
<rect width="7" height="520" x="188" y="40" style="fill:rgb(230,230,230);stroke:none"/>
<rect width="7" height="520" x="202" y="40" style="fill:rgb(230,230,230);stroke:none"/>
<text x="197" y="575" fill="rgb(0,0,0)" font-family="Arial" font-size="12">27</text>
<rect width="7" height="520" x="216" y="40" style="fill:rgb(230,230,230);stroke:none"/>
<rect width="7" height="520" x="230" y="40" style="fill:rgb(230,230,230);stroke:none"/>
<text x="225" y="575" fill="rgb(0,0,0)" font-family="Arial" font-size="12">31</text>
<rect width="7" height="520" x="244" y="40" style="fill:rgb(230,230,230);stroke:none"/>
<rect width="7" height="520" x="258" y="40" style="fill:rgb(230,230,230);stroke:none"/>
<text x="253" y="575" fill="rgb(0,0,0)" font-family="Arial" font-size="12">35</text>
<rect width="7" height="520" x="272" y="40" style="fill:rgb(230,230,230);stroke:none"/>
<rect width="7" height="520" x="286" y="40" style="fill:rgb(230,230,230);stroke:none"/>
<text x="281" y="575" fill="rgb(0,0,0)" font-family="Arial" font-size="12">39</text>
<rect width="7" height="520" x="300" y="40" style="fill:rgb(230,230,230);stroke:none"/>
<rect width="7" height="520" x="314" y="40" style="fill:rgb(230,230,230);stroke:none"/>
<text x="309" y="575" fill="rgb(0,0,0)" font-family="Arial" font-size="12">43</text>
<rect width="7" height="520" x="328" y="40" style="fill:rgb(230,230,230);stroke:none"/>
<rect width="7" height="520" x="342" y="40" style="fill:rgb(230,230,230);stroke:none"/>
<text x="337" y="575" fill="rgb(0,0,0)" font-family="Arial" font-size="12">47</text>
<rect width="7" height="520" x="356" y="40" style="fill:rgb(230,230,230);stroke:none"/>
<rect width="7" height="520" x="370" y="40" style="fill:rgb(230,230,230);stroke:none"/>
<text x="365" y="575" fill="rgb(0,0,0)" font-family="Arial" font-size="12">51</text>
<rect width="7" height="520" x="384" y="40" style="fill:rgb(230,230,230);stroke:none"/>
<rect width="7" height="520" x="398" y="40" style="fill:rgb(230,230,230);stroke:none"/>
<text x="393" y="575" fill="rgb(0,0,0)" font-family="Arial" font-size="12">55</text>
<rect width="7" height="520" x="412" y="40" style="fill:rgb(230,230,230);stroke:none"/>
<rect width="7" height="520" x="426" y="40" style="fill:rgb(230,230,230);stroke:none"/>
<text x="421" y="575" fill="rgb(0,0,0)" font-family="Arial" font-size="12">59</text>
<rect width="7" height="520" x="440" y="40" style="fill:rgb(230,230,230);stroke:none"/>
<rect width="7" height="520" x="454" y="40" style="fill:rgb(230,230,230);stroke:none"/>
<text x="449" y="575" fill="rgb(0,0,0)" font-family="Arial" font-size="12">63</text>
<rect width="7" height="520" x="468" y="40" style="fill:rgb(230,230,230);stroke:none"/>
<rect width="7" height="520" x="482" y="40" style="fill:rgb(230,230,230);stroke:none"/>
<text x="477" y="575" fill="rgb(0,0,0)" font-family="Arial" font-size="12">67</text>
<rect width="7" height="520" x="496" y="40" style="fill:rgb(230,230,230);stroke:none"/>
<rect width="7" height="520" x="510" y="40" style="fill:rgb(230,230,230);stroke:none"/>
<text x="505" y="575" fill="rgb(0,0,0)" font-family="Arial" font-size="12">71</text>
<rect width="7" height="520" x="524" y="40" style="fill:rgb(230,230,230);stroke:none"/>
<rect width="7" height="520" x="538" y="40" style="fill:rgb(230,230,230);stroke:none"/>
<text x="533" y="575" fill="rgb(0,0,0)" font-family="Arial" font-size="12">75</text>
<rect width="7" height="520" x="552" y="40" style="fill:rgb(230,230,230);stroke:none"/>
<rect width="7" height="520" x="566" y="40" style="fill:rgb(230,230,230);stroke:none"/>
<text x="561" y="575" fill="rgb(0,0,0)" font-family="Arial" font-size="12">79</text>
<rect width="7" height="520" x="580" y="40" style="fill:rgb(230,230,230);stroke:none"/>
<rect width="7" height="520" x="594" y="40" style="fill:rgb(230,230,230);stroke:none"/>
<text x="589" y="575" fill="rgb(0,0,0)" font-family="Arial" font-size="12">83</text>
<rect width="7" height="520" x="608" y="40" style="fill:rgb(230,230,230);stroke:none"/>
<rect width="7" height="520" x="622" y="40" style="fill:rgb(230,230,230);stroke:none"/>
<text x="617" y="575" fill="rgb(0,0,0)" font-family="Arial" font-size="12">87</text>
<rect width="7" height="520" x="636" y="40" style="fill:rgb(230,230,230);stroke:none"/>
<rect width="7" height="520" x="650" y="40" style="fill:rgb(230,230,230);stroke:none"/>
<text x="645" y="575" fill="rgb(0,0,0)" font-family="Arial" font-size="12">91</text>
<rect width="7" height="520" x="664" y="40" style="fill:rgb(230,230,230);stroke:none"/>
<rect width="7" height="520" x="678" y="40" style="fill:rgb(230,230,230);stroke:none"/>
<text x="673" y="575" fill="rgb(0,0,0)" font-family="Arial" font-size="12">95</text>
<rect width="7" height="520" x="692" y="40" style="fill:rgb(230,230,230);stroke:none"/>
<rect width="7" height="520" x="706" y="40" style="fill:rgb(230,230,230);stroke:none"/>
<text x="701" y="575" fill="rgb(0,0,0)" font-family="Arial" font-size="12">99</text>
<line x1="13" y1="560" x2="790" y2="560" stroke="rgb(180,180,180)" stroke-width="1"/>
<line x1="13" y1="300" x2="790" y2="300" stroke="rgb(180,180,180)" stroke-width="1"/>
<line x1="13" y1="40" x2="790" y2="40" stroke="rgb(180,180,180)" stroke-width="1"/>
<line x1="16" y1="560" x2="23" y2="560" stroke="rgb(136,34,85)" stroke-width="1"/>
<line x1="23" y1="560" x2="30" y2="560" stroke="rgb(136,34,85)" stroke-width="1"/>
<line x1="30" y1="560" x2="37" y2="560" stroke="rgb(136,34,85)" stroke-width="1"/>
<line x1="37" y1="560" x2="44" y2="560" stroke="rgb(136,34,85)" stroke-width="1"/>
<line x1="44" y1="560" x2="51" y2="560" stroke="rgb(136,34,85)" stroke-width="1"/>
<line x1="51" y1="560" x2="58" y2="560" stroke="rgb(136,34,85)" stroke-width="1"/>
<line x1="58" y1="560" x2="65" y2="560" stroke="rgb(136,34,85)" stroke-width="1"/>
<line x1="65" y1="560" x2="72" y2="560" stroke="rgb(136,34,85)" stroke-width="1"/>
<line x1="72" y1="560" x2="79" y2="560" stroke="rgb(136,34,85)" stroke-width="1"/>
<line x1="79" y1="560" x2="86" y2="560" stroke="rgb(136,34,85)" stroke-width="1"/>
<line x1="86" y1="560" x2="93" y2="560" stroke="rgb(136,34,85)" stroke-width="1"/>
<line x1="93" y1="560" x2="100" y2="560" stroke="rgb(136,34,85)" stroke-width="1"/>
<line x1="100" y1="560" x2="107" y2="560" stroke="rgb(136,34,85)" stroke-width="1"/>
<line x1="107" y1="560" x2="114" y2="560" stroke="rgb(136,34,85)" stroke-width="1"/>
<line x1="114" y1="560" x2="121" y2="560" stroke="rgb(136,34,85)" stroke-width="1"/>
<line x1="121" y1="560" x2="128" y2="560" stroke="rgb(136,34,85)" stroke-width="1"/>
<line x1="128" y1="560" x2="135" y2="560" stroke="rgb(136,34,85)" stroke-width="1"/>
<line x1="135" y1="560" x2="142" y2="560" stroke="rgb(136,34,85)" stroke-width="1"/>
<line x1="142" y1="560" x2="149" y2="560" stroke="rgb(136,34,85)" stroke-width="1"/>
<line x1="149" y1="560" x2="156" y2="560" stroke="rgb(136,34,85)" stroke-width="1"/>
<line x1="156" y1="560" x2="163" y2="560" stroke="rgb(136,34,85)" stroke-width="1"/>
<line x1="163" y1="560" x2="170" y2="560" stroke="rgb(136,34,85)" stroke-width="1"/>
<line x1="170" y1="560" x2="177" y2="560" stroke="rgb(136,34,85)" stroke-width="1"/>
<line x1="177" y1="560" x2="184" y2="560" stroke="rgb(136,34,85)" stroke-width="1"/>
<line x1="184" y1="560" x2="191" y2="560" stroke="rgb(136,34,85)" stroke-width="1"/>
<line x1="191" y1="560" x2="198" y2="560" stroke="rgb(136,34,85)" stroke-width="1"/>
<line x1="198" y1="560" x2="205" y2="560" stroke="rgb(136,34,85)" stroke-width="1"/>
<line x1="205" y1="560" x2="212" y2="560" stroke="rgb(136,34,85)" stroke-width="1"/>
<line x1="212" y1="560" x2="219" y2="560" stroke="rgb(136,34,85)" stroke-width="1"/>
<line x1="219" y1="560" x2="226" y2="560" stroke="rgb(136,34,85)" stroke-width="1"/>
<line x1="226" y1="560" x2="233" y2="560" stroke="rgb(136,34,85)" stroke-width="1"/>
<line x1="233" y1="560" x2="240" y2="560" stroke="rgb(136,34,85)" stroke-width="1"/>
<line x1="240" y1="560" x2="247" y2="560" stroke="rgb(136,34,85)" stroke-width="1"/>
<line x1="247" y1="560" x2="254" y2="560" stroke="rgb(136,34,85)" stroke-width="1"/>
<line x1="254" y1="560" x2="261" y2="560" stroke="rgb(136,34,85)" stroke-width="1"/>
<line x1="261" y1="560" x2="268" y2="560" stroke="rgb(136,34,85)" stroke-width="1"/>
<line x1="268" y1="560" x2="275" y2="560" stroke="rgb(136,34,85)" stroke-width="1"/>
<line x1="275" y1="560" x2="282" y2="560" stroke="rgb(136,34,85)" stroke-width="1"/>
<line x1="282" y1="560" x2="289" y2="560" stroke="rgb(136,34,85)" stroke-width="1"/>
<line x1="289" y1="560" x2="296" y2="560" stroke="rgb(136,34,85)" stroke-width="1"/>
<line x1="296" y1="560" x2="303" y2="560" stroke="rgb(136,34,85)" stroke-width="1"/>
<line x1="303" y1="560" x2="310" y2="560" stroke="rgb(136,34,85)" stroke-width="1"/>
<line x1="310" y1="560" x2="317" y2="560" stroke="rgb(136,34,85)" stroke-width="1"/>
<line x1="317" y1="560" x2="324" y2="560" stroke="rgb(136,34,85)" stroke-width="1"/>
<line x1="324" y1="560" x2="331" y2="430" stroke="rgb(136,34,85)" stroke-width="1"/>
<line x1="331" y1="430" x2="338" y2="300" stroke="rgb(136,34,85)" stroke-width="1"/>
<line x1="338" y1="300" x2="345" y2="40" stroke="rgb(136,34,85)" stroke-width="1"/>
<line x1="345" y1="40" x2="352" y2="170" stroke="rgb(136,34,85)" stroke-width="1"/>
<line x1="352" y1="170" x2="359" y2="560" stroke="rgb(136,34,85)" stroke-width="1"/>
<line x1="359" y1="560" x2="366" y2="560" stroke="rgb(136,34,85)" stroke-width="1"/>
<line x1="366" y1="560" x2="373" y2="560" stroke="rgb(136,34,85)" stroke-width="1"/>
<line x1="373" y1="560" x2="380" y2="560" stroke="rgb(136,34,85)" stroke-width="1"/>
<line x1="380" y1="560" x2="387" y2="560" stroke="rgb(136,34,85)" stroke-width="1"/>
<line x1="387" y1="560" x2="394" y2="560" stroke="rgb(136,34,85)" stroke-width="1"/>
<line x1="394" y1="560" x2="401" y2="560" stroke="rgb(136,34,85)" stroke-width="1"/>
<line x1="401" y1="560" x2="408" y2="560" stroke="rgb(136,34,85)" stroke-width="1"/>
<line x1="408" y1="560" x2="415" y2="560" stroke="rgb(136,34,85)" stroke-width="1"/>
<line x1="415" y1="560" x2="422" y2="560" stroke="rgb(136,34,85)" stroke-width="1"/>
<line x1="422" y1="560" x2="429" y2="560" stroke="rgb(136,34,85)" stroke-width="1"/>
<line x1="429" y1="560" x2="436" y2="560" stroke="rgb(136,34,85)" stroke-width="1"/>
<line x1="436" y1="560" x2="443" y2="560" stroke="rgb(136,34,85)" stroke-width="1"/>
<line x1="443" y1="560" x2="450" y2="560" stroke="rgb(136,34,85)" stroke-width="1"/>
<line x1="450" y1="560" x2="457" y2="560" stroke="rgb(136,34,85)" stroke-width="1"/>
<line x1="457" y1="560" x2="464" y2="560" stroke="rgb(136,34,85)" stroke-width="1"/>
<line x1="464" y1="560" x2="471" y2="560" stroke="rgb(136,34,85)" stroke-width="1"/>
<line x1="471" y1="560" x2="478" y2="560" stroke="rgb(136,34,85)" stroke-width="1"/>
<line x1="478" y1="560" x2="485" y2="560" stroke="rgb(136,34,85)" stroke-width="1"/>
<line x1="485" y1="560" x2="492" y2="560" stroke="rgb(136,34,85)" stroke-width="1"/>
<line x1="492" y1="560" x2="499" y2="560" stroke="rgb(136,34,85)" stroke-width="1"/>
<line x1="499" y1="560" x2="506" y2="560" stroke="rgb(136,34,85)" stroke-width="1"/>
<line x1="506" y1="560" x2="513" y2="560" stroke="rgb(136,34,85)" stroke-width="1"/>
<line x1="513" y1="560" x2="520" y2="560" stroke="rgb(136,34,85)" stroke-width="1"/>
<line x1="520" y1="560" x2="527" y2="560" stroke="rgb(136,34,85)" stroke-width="1"/>
<line x1="527" y1="560" x2="534" y2="560" stroke="rgb(136,34,85)" stroke-width="1"/>
<line x1="534" y1="560" x2="541" y2="560" stroke="rgb(136,34,85)" stroke-width="1"/>
<line x1="541" y1="560" x2="548" y2="560" stroke="rgb(136,34,85)" stroke-width="1"/>
<line x1="548" y1="560" x2="555" y2="560" stroke="rgb(136,34,85)" stroke-width="1"/>
<line x1="555" y1="560" x2="562" y2="560" stroke="rgb(136,34,85)" stroke-width="1"/>
<line x1="562" y1="560" x2="569" y2="560" stroke="rgb(136,34,85)" stroke-width="1"/>
<line x1="569" y1="560" x2="576" y2="560" stroke="rgb(136,34,85)" stroke-width="1"/>
<line x1="576" y1="560" x2="583" y2="560" stroke="rgb(136,34,85)" stroke-width="1"/>
<line x1="583" y1="560" x2="590" y2="560" stroke="rgb(136,34,85)" stroke-width="1"/>
<line x1="590" y1="560" x2="597" y2="560" stroke="rgb(136,34,85)" stroke-width="1"/>
<line x1="597" y1="560" x2="604" y2="560" stroke="rgb(136,34,85)" stroke-width="1"/>
<line x1="604" y1="560" x2="611" y2="560" stroke="rgb(136,34,85)" stroke-width="1"/>
<line x1="611" y1="560" x2="618" y2="560" stroke="rgb(136,34,85)" stroke-width="1"/>
<line x1="618" y1="560" x2="625" y2="560" stroke="rgb(136,34,85)" stroke-width="1"/>
<line x1="625" y1="560" x2="632" y2="560" stroke="rgb(136,34,85)" stroke-width="1"/>
<line x1="632" y1="560" x2="639" y2="560" stroke="rgb(136,34,85)" stroke-width="1"/>
<line x1="639" y1="560" x2="646" y2="560" stroke="rgb(136,34,85)" stroke-width="1"/>
<line x1="646" y1="560" x2="653" y2="560" stroke="rgb(136,34,85)" stroke-width="1"/>
<line x1="653" y1="560" x2="660" y2="560" stroke="rgb(136,34,85)" stroke-width="1"/>
<line x1="660" y1="560" x2="667" y2="560" stroke="rgb(136,34,85)" stroke-width="1"/>
<line x1="667" y1="560" x2="674" y2="560" stroke="rgb(136,34,85)" stroke-width="1"/>
<line x1="674" y1="560" x2="681" y2="560" stroke="rgb(136,34,85)" stroke-width="1"/>
<line x1="681" y1="560" x2="688" y2="560" stroke="rgb(136,34,85)" stroke-width="1"/>
<line x1="688" y1="560" x2="695" y2="560" stroke="rgb(136,34,85)" stroke-width="1"/>
<line x1="695" y1="560" x2="702" y2="560" stroke="rgb(136,34,85)" stroke-width="1"/>
<line x1="702" y1="560" x2="709" y2="560" stroke="rgb(136,34,85)" stroke-width="1"/>
<line x1="709" y1="560" x2="716" y2="560" stroke="rgb(136,34,85)" stroke-width="1"/>
<line x1="16" y1="560" x2="23" y2="560" stroke="rgb(51,34,136)" stroke-width="1"/>
<line x1="23" y1="560" x2="30" y2="560" stroke="rgb(51,34,136)" stroke-width="1"/>
<line x1="30" y1="560" x2="37" y2="560" stroke="rgb(51,34,136)" stroke-width="1"/>
<line x1="37" y1="560" x2="44" y2="560" stroke="rgb(51,34,136)" stroke-width="1"/>
<line x1="44" y1="560" x2="51" y2="560" stroke="rgb(51,34,136)" stroke-width="1"/>
<line x1="51" y1="560" x2="58" y2="560" stroke="rgb(51,34,136)" stroke-width="1"/>
<line x1="58" y1="560" x2="65" y2="560" stroke="rgb(51,34,136)" stroke-width="1"/>
<line x1="65" y1="560" x2="72" y2="560" stroke="rgb(51,34,136)" stroke-width="1"/>
<line x1="72" y1="560" x2="79" y2="560" stroke="rgb(51,34,136)" stroke-width="1"/>
<line x1="79" y1="560" x2="86" y2="560" stroke="rgb(51,34,136)" stroke-width="1"/>
<line x1="86" y1="560" x2="93" y2="560" stroke="rgb(51,34,136)" stroke-width="1"/>
<line x1="93" y1="560" x2="100" y2="560" stroke="rgb(51,34,136)" stroke-width="1"/>
<line x1="100" y1="560" x2="107" y2="560" stroke="rgb(51,34,136)" stroke-width="1"/>
<line x1="107" y1="560" x2="114" y2="560" stroke="rgb(51,34,136)" stroke-width="1"/>
<line x1="114" y1="560" x2="121" y2="560" stroke="rgb(51,34,136)" stroke-width="1"/>
<line x1="121" y1="560" x2="128" y2="560" stroke="rgb(51,34,136)" stroke-width="1"/>
<line x1="128" y1="560" x2="135" y2="560" stroke="rgb(51,34,136)" stroke-width="1"/>
<line x1="135" y1="560" x2="142" y2="560" stroke="rgb(51,34,136)" stroke-width="1"/>
<line x1="142" y1="560" x2="149" y2="560" stroke="rgb(51,34,136)" stroke-width="1"/>
<line x1="149" y1="560" x2="156" y2="560" stroke="rgb(51,34,136)" stroke-width="1"/>
<line x1="156" y1="560" x2="163" y2="560" stroke="rgb(51,34,136)" stroke-width="1"/>
<line x1="163" y1="560" x2="170" y2="560" stroke="rgb(51,34,136)" stroke-width="1"/>
<line x1="170" y1="560" x2="177" y2="560" stroke="rgb(51,34,136)" stroke-width="1"/>
<line x1="177" y1="560" x2="184" y2="560" stroke="rgb(51,34,136)" stroke-width="1"/>
<line x1="184" y1="560" x2="191" y2="560" stroke="rgb(51,34,136)" stroke-width="1"/>
<line x1="191" y1="560" x2="198" y2="560" stroke="rgb(51,34,136)" stroke-width="1"/>
<line x1="198" y1="560" x2="205" y2="560" stroke="rgb(51,34,136)" stroke-width="1"/>
<line x1="205" y1="560" x2="212" y2="560" stroke="rgb(51,34,136)" stroke-width="1"/>
<line x1="212" y1="560" x2="219" y2="560" stroke="rgb(51,34,136)" stroke-width="1"/>
<line x1="219" y1="560" x2="226" y2="560" stroke="rgb(51,34,136)" stroke-width="1"/>
<line x1="226" y1="560" x2="233" y2="560" stroke="rgb(51,34,136)" stroke-width="1"/>
<line x1="233" y1="560" x2="240" y2="560" stroke="rgb(51,34,136)" stroke-width="1"/>
<line x1="240" y1="560" x2="247" y2="560" stroke="rgb(51,34,136)" stroke-width="1"/>
<line x1="247" y1="560" x2="254" y2="560" stroke="rgb(51,34,136)" stroke-width="1"/>
<line x1="254" y1="560" x2="261" y2="560" stroke="rgb(51,34,136)" stroke-width="1"/>
<line x1="261" y1="560" x2="268" y2="560" stroke="rgb(51,34,136)" stroke-width="1"/>
<line x1="268" y1="560" x2="275" y2="560" stroke="rgb(51,34,136)" stroke-width="1"/>
<line x1="275" y1="560" x2="282" y2="560" stroke="rgb(51,34,136)" stroke-width="1"/>
<line x1="282" y1="560" x2="289" y2="560" stroke="rgb(51,34,136)" stroke-width="1"/>
<line x1="289" y1="560" x2="296" y2="560" stroke="rgb(51,34,136)" stroke-width="1"/>
<line x1="296" y1="560" x2="303" y2="560" stroke="rgb(51,34,136)" stroke-width="1"/>
<line x1="303" y1="560" x2="310" y2="560" stroke="rgb(51,34,136)" stroke-width="1"/>
<line x1="310" y1="560" x2="317" y2="560" stroke="rgb(51,34,136)" stroke-width="1"/>
<line x1="317" y1="560" x2="324" y2="552" stroke="rgb(51,34,136)" stroke-width="1"/>
<line x1="324" y1="552" x2="331" y2="478" stroke="rgb(51,34,136)" stroke-width="1"/>
<line x1="331" y1="478" x2="338" y2="247" stroke="rgb(51,34,136)" stroke-width="1"/>
<line x1="338" y1="247" x2="345" y2="72" stroke="rgb(51,34,136)" stroke-width="1"/>
<line x1="345" y1="72" x2="352" y2="247" stroke="rgb(51,34,136)" stroke-width="1"/>
<line x1="352" y1="247" x2="359" y2="478" stroke="rgb(51,34,136)" stroke-width="1"/>
<line x1="359" y1="478" x2="366" y2="552" stroke="rgb(51,34,136)" stroke-width="1"/>
<line x1="366" y1="552" x2="373" y2="560" stroke="rgb(51,34,136)" stroke-width="1"/>
<line x1="373" y1="560" x2="380" y2="560" stroke="rgb(51,34,136)" stroke-width="1"/>
<line x1="380" y1="560" x2="387" y2="560" stroke="rgb(51,34,136)" stroke-width="1"/>
<line x1="387" y1="560" x2="394" y2="560" stroke="rgb(51,34,136)" stroke-width="1"/>
<line x1="394" y1="560" x2="401" y2="560" stroke="rgb(51,34,136)" stroke-width="1"/>
<line x1="401" y1="560" x2="408" y2="560" stroke="rgb(51,34,136)" stroke-width="1"/>
<line x1="408" y1="560" x2="415" y2="560" stroke="rgb(51,34,136)" stroke-width="1"/>
<line x1="415" y1="560" x2="422" y2="560" stroke="rgb(51,34,136)" stroke-width="1"/>
<line x1="422" y1="560" x2="429" y2="560" stroke="rgb(51,34,136)" stroke-width="1"/>
<line x1="429" y1="560" x2="436" y2="560" stroke="rgb(51,34,136)" stroke-width="1"/>
<line x1="436" y1="560" x2="443" y2="560" stroke="rgb(51,34,136)" stroke-width="1"/>
<line x1="443" y1="560" x2="450" y2="560" stroke="rgb(51,34,136)" stroke-width="1"/>
<line x1="450" y1="560" x2="457" y2="560" stroke="rgb(51,34,136)" stroke-width="1"/>
<line x1="457" y1="560" x2="464" y2="560" stroke="rgb(51,34,136)" stroke-width="1"/>
<line x1="464" y1="560" x2="471" y2="560" stroke="rgb(51,34,136)" stroke-width="1"/>
<line x1="471" y1="560" x2="478" y2="560" stroke="rgb(51,34,136)" stroke-width="1"/>
<line x1="478" y1="560" x2="485" y2="560" stroke="rgb(51,34,136)" stroke-width="1"/>
<line x1="485" y1="560" x2="492" y2="560" stroke="rgb(51,34,136)" stroke-width="1"/>
<line x1="492" y1="560" x2="499" y2="560" stroke="rgb(51,34,136)" stroke-width="1"/>
<line x1="499" y1="560" x2="506" y2="560" stroke="rgb(51,34,136)" stroke-width="1"/>
<line x1="506" y1="560" x2="513" y2="560" stroke="rgb(51,34,136)" stroke-width="1"/>
<line x1="513" y1="560" x2="520" y2="560" stroke="rgb(51,34,136)" stroke-width="1"/>
<line x1="520" y1="560" x2="527" y2="560" stroke="rgb(51,34,136)" stroke-width="1"/>
<line x1="527" y1="560" x2="534" y2="560" stroke="rgb(51,34,136)" stroke-width="1"/>
<line x1="534" y1="560" x2="541" y2="560" stroke="rgb(51,34,136)" stroke-width="1"/>
<line x1="541" y1="560" x2="548" y2="560" stroke="rgb(51,34,136)" stroke-width="1"/>
<line x1="548" y1="560" x2="555" y2="560" stroke="rgb(51,34,136)" stroke-width="1"/>
<line x1="555" y1="560" x2="562" y2="560" stroke="rgb(51,34,136)" stroke-width="1"/>
<line x1="562" y1="560" x2="569" y2="560" stroke="rgb(51,34,136)" stroke-width="1"/>
<line x1="569" y1="560" x2="576" y2="560" stroke="rgb(51,34,136)" stroke-width="1"/>
<line x1="576" y1="560" x2="583" y2="560" stroke="rgb(51,34,136)" stroke-width="1"/>
<line x1="583" y1="560" x2="590" y2="560" stroke="rgb(51,34,136)" stroke-width="1"/>
<line x1="590" y1="560" x2="597" y2="560" stroke="rgb(51,34,136)" stroke-width="1"/>
<line x1="597" y1="560" x2="604" y2="560" stroke="rgb(51,34,136)" stroke-width="1"/>
<line x1="604" y1="560" x2="611" y2="560" stroke="rgb(51,34,136)" stroke-width="1"/>
<line x1="611" y1="560" x2="618" y2="560" stroke="rgb(51,34,136)" stroke-width="1"/>
<line x1="618" y1="560" x2="625" y2="560" stroke="rgb(51,34,136)" stroke-width="1"/>
<line x1="625" y1="560" x2="632" y2="560" stroke="rgb(51,34,136)" stroke-width="1"/>
<line x1="632" y1="560" x2="639" y2="560" stroke="rgb(51,34,136)" stroke-width="1"/>
<line x1="639" y1="560" x2="646" y2="560" stroke="rgb(51,34,136)" stroke-width="1"/>
<line x1="646" y1="560" x2="653" y2="560" stroke="rgb(51,34,136)" stroke-width="1"/>
<line x1="653" y1="560" x2="660" y2="560" stroke="rgb(51,34,136)" stroke-width="1"/>
<line x1="660" y1="560" x2="667" y2="560" stroke="rgb(51,34,136)" stroke-width="1"/>
<line x1="667" y1="560" x2="674" y2="560" stroke="rgb(51,34,136)" stroke-width="1"/>
<line x1="674" y1="560" x2="681" y2="560" stroke="rgb(51,34,136)" stroke-width="1"/>
<line x1="681" y1="560" x2="688" y2="560" stroke="rgb(51,34,136)" stroke-width="1"/>
<line x1="688" y1="560" x2="695" y2="560" stroke="rgb(51,34,136)" stroke-width="1"/>
<line x1="695" y1="560" x2="702" y2="560" stroke="rgb(51,34,136)" stroke-width="1"/>
<line x1="702" y1="560" x2="709" y2="560" stroke="rgb(51,34,136)" stroke-width="1"/>
<line x1="709" y1="560" x2="716" y2="560" stroke="rgb(51,34,136)" stroke-width="1"/>
<rect width="161" height="43" x="629" y="40" style="fill:rgb(255,255,255);stroke:none"/>
<rect width="161" height="43" x="629" y="40" rx="0" ry="0" style="fill:none;stroke-width:1;stroke:rgb(192,192,192)"/>
<text x="632" y="55" fill="rgb(136,34,85)" font-family="Arial" font-size="12" font-weight="bold">GC count per read</text>
<text x="632" y="75" fill="rgb(51,34,136)" font-family="Arial" font-size="12" font-weight="bold">Theoretical Distribution</text>
</svg>
